<?xml version="1.0" encoding="UTF-8" standalone="no"?>
<!-- Created with Inkscape (http://www.inkscape.org/) -->

<svg
   width="120.74942mm"
   height="153.60101mm"
   viewBox="0 0 120.74942 153.60101"
   version="1.1"
   id="svg1"
   xml:space="preserve"
   xmlns:inkscape="http://www.inkscape.org/namespaces/inkscape"
   xmlns:sodipodi="http://sodipodi.sourceforge.net/DTD/sodipodi-0.dtd"
   xmlns="http://www.w3.org/2000/svg"
   xmlns:svg="http://www.w3.org/2000/svg"><sodipodi:namedview
     id="namedview1"
     pagecolor="#505050"
     bordercolor="#eeeeee"
     borderopacity="1"
     inkscape:showpageshadow="0"
     inkscape:pageopacity="0"
     inkscape:pagecheckerboard="0"
     inkscape:deskcolor="#505050"
     inkscape:document-units="mm" /><defs
     id="defs1" /><g
     inkscape:label="Warstwa 1"
     inkscape:groupmode="layer"
     id="layer1"
     transform="translate(-44.525163,-100.92018)"><path
       id="path1"
       style="fill:none;fill-opacity:1;stroke:#000000;stroke-width:1;stroke-linecap:round;stroke-linejoin:miter;stroke-dasharray:none;stroke-opacity:1;paint-order:normal"
       d="m 111.99161,101.42017 -0.13384,0.002 a 7.5597124,7.5597124 0 0 1 1.38545,4.35788 7.5597124,7.5597124 0 0 1 -7.55975,7.55974 7.5597124,7.5597124 0 0 1 -7.559744,-7.55974 7.5597124,7.5597124 0 0 1 1.263489,-4.17236 l -0.468188,0.007 h -7.08794 l -3.898987,4.66845 v 10.37817 c -10.665657,8.28306 -9.758406,39.78998 -9.572025,44.31668 a 32.031155,32.031155 0 0 0 -5.546432,17.90536 32.031155,32.031155 0 0 0 0.947746,7.41712 l -0.125057,0.6873 -7.208862,9.33173 -21.402311,6.90862 v 8.79068 l 21.491194,6.30607 11.527462,14.80479 h 4.460193 v 8.84752 h 4.225582 v 7.91063 l 5.521627,4.13308 h 11.139893 v -12.01167 h 3.1321 v 11.99771 h 10.84534 l 5.69629,-4.29637 v -7.71323 h 4.72633 v -8.72195 h 3.8132 l 11.78119,-15.14894 21.35942,-6.84971 0.0284,-8.99945 -21.69066,-6.32107 -7.04918,-8.98446 -0.10077,-0.69143 a 32.031155,32.031155 0 0 0 0.94361,-7.39697 32.031155,32.031155 0 0 0 -4.4297,-16.2419 c 0,0 1.95224,-36.29844 -9.53689,-45.22101 l -0.11886,-11.31972 -3.74447,-4.68085 z"
       inkscape:export-filename="ShipOutline.svg"
       inkscape:export-xdpi="96"
       inkscape:export-ydpi="96" /></g></svg>
